<svg xmlns="http://www.w3.org/2000/svg" xmlns:xlink="http://www.w3.org/1999/xlink" width="100" zoomAndPan="magnify" viewBox="0 0 75 74.999997" height="100" preserveAspectRatio="xMidYMid meet" version="1.0"><defs><clipPath id="0578d5b082"><path d="M 0 7.5 L 75 7.5 L 75 72 L 0 72 Z M 0 7.5 " clip-rule="nonzero"/></clipPath><clipPath id="dfb3374b33"><path d="M 9.375 26.734375 L 65.625 26.734375 L 65.625 49.558594 L 9.375 49.558594 Z M 9.375 26.734375 " clip-rule="nonzero"/></clipPath></defs><g clip-path="url(#0578d5b082)"><path fill="#000000" d="M 52.078125 41.5625 C 49.542969 41.5625 47.484375 39.507812 47.484375 36.976562 C 47.484375 34.441406 49.542969 32.386719 52.078125 32.386719 C 54.617188 32.386719 56.671875 34.441406 56.671875 36.976562 C 56.671875 39.507812 54.617188 41.5625 52.078125 41.5625 Z M 36.765625 41.5625 C 34.230469 41.5625 32.171875 39.507812 32.171875 36.976562 C 32.171875 34.441406 34.230469 32.386719 36.765625 32.386719 C 39.304688 32.386719 41.359375 34.441406 41.359375 36.976562 C 41.359375 39.507812 39.304688 41.5625 36.765625 41.5625 Z M 21.457031 41.5625 C 18.917969 41.5625 16.863281 39.507812 16.863281 36.976562 C 16.863281 34.441406 18.917969 32.386719 21.457031 32.386719 C 23.992188 32.386719 26.050781 34.441406 26.050781 36.976562 C 26.050781 39.507812 23.992188 41.5625 21.457031 41.5625 Z M 37.96875 7.914062 C 17.375 7.507812 0.425781 20.179688 0.109375 36.21875 C 0 41.792969 1.914062 47.039062 5.324219 51.53125 C 11.191406 59.054688 4.789062 71.992188 4.789062 71.992188 L 23.691406 63.863281 C 27.761719 65.148438 32.1875 65.894531 36.824219 65.988281 C 57.417969 66.390625 74.371094 53.722656 74.6875 37.683594 C 75.003906 21.648438 58.566406 8.320312 37.96875 7.914062 " fill-opacity="1" fill-rule="evenodd"/></g><g clip-path="url(#dfb3374b33)"><path fill="#000000" d="M 9.375 26.734375 L 65.628906 26.734375 L 65.628906 49.558594 L 9.375 49.558594 Z M 9.375 26.734375 " fill-opacity="1" fill-rule="nonzero"/></g></svg>